<svg xmlns="http://www.w3.org/2000/svg" width="48" height="48" viewBox="0 0 24 24" fill="#4F46E5">
  <path d="M12 2C6.48 2 2 3.79 2 6v12c0 2.21 4.48 4 10 4s10-1.79 10-4V6c0-2.21-4.48-4-10-4zm8 14c0 1.1-3.58 3-8 3s-8-1.9-8-3v-1.09C5.99 16.02 9.34 17 12 17s6.01-.98 8-2.09V16zm0-3c0 1.1-3.58 3-8 3s-8-1.9-8-3v-1.09C5.99 13.02 9.34 14 12 14s6.01-.98 8-2.09V13zm0-3c0 1.1-3.58 3-8 3s-8-1.9-8-3V8.91C5.99 10.02 9.34 11 12 11s6.01-.98 8-2.09V10zm-8-1c-4.42 0-8-1.9-8-3s3.58-3 8-3 8 1.9 8 3-3.58 3-8 3z"/>
</svg>